<?xml version="1.0" encoding="utf-8"?>
<!-- Generator: Adobe Illustrator 22.1.0, SVG Export Plug-In . SVG Version: 6.00 Build 0)  -->
<svg version="1.1" xmlns="http://www.w3.org/2000/svg" xmlns:xlink="http://www.w3.org/1999/xlink" x="0px" y="0px"
	 viewBox="0 0 288 414.3" style="enable-background:new 0 0 288 414.3;" xml:space="preserve">
<style type="text/css">
	.st0{fill:url(#SVGID_1_);}
	.st1{fill:#333333;stroke:#666666;stroke-width:2;stroke-miterlimit:10;}
	.st2{fill:#4D4D4D;stroke:#666666;stroke-width:2;stroke-miterlimit:10;}
	.st3{fill:#E6E6E6;}
	.st4{fill:#999999;}
	.st5{fill:#B3B3B4;}
	.st6{fill:none;stroke:#4D4D4D;stroke-width:0.25;stroke-miterlimit:10;}
	.st7{fill:#FFFF00;stroke:#666666;stroke-width:0.5;stroke-miterlimit:10;}
	.st8{fill:#3B5E92;}
	.st9{fill:#387DCE;}
	.st10{fill:url(#SVGID_2_);}
	.st11{fill:url(#SVGID_3_);}
	.st12{fill:url(#SVGID_4_);}
</style>
<g id="rays">
	<linearGradient id="SVGID_1_" gradientUnits="userSpaceOnUse" x1="144.1343" y1="398.8752" x2="145.6085" y2="230.0725">
		<stop  offset="0" style="stop-color:#FFFF00;stop-opacity:0"/>
		<stop  offset="0.3562" style="stop-color:#FFFD05;stop-opacity:0.3562"/>
		<stop  offset="0.7707" style="stop-color:#FFF813;stop-opacity:0.7707"/>
		<stop  offset="1" style="stop-color:#FFF41E"/>
	</linearGradient>
	<polygon class="st0" points="144,81.3 72,414.3 216,414.3 	"/>
</g>
<g id="boosters">
	<ellipse class="st1" cx="144" cy="121.8" rx="18" ry="13.5"/>
	<ellipse transform="matrix(0.9903 -0.1392 0.1392 0.9903 -14.4829 27.4078)" class="st1" cx="188.7" cy="117.3" rx="18" ry="9"/>
	<ellipse transform="matrix(0.1392 -0.9903 0.9903 0.1392 -30.6902 199.267)" class="st1" cx="99.3" cy="117.3" rx="9" ry="18"/>
</g>
<g id="main_under">
	<ellipse class="st2" cx="144" cy="103.8" rx="81" ry="22.5"/>
</g>
<g id="body_sides">
	<path class="st3" d="M287.5,80.8c0,19.9-64.5,36-144,36S0,101.1,0,81.3s64-36.5,143.5-36.5S287.5,60.9,287.5,80.8z"/>
</g>
<g id="body">
	<ellipse class="st4" cx="144" cy="76.8" rx="144" ry="31.5"/>
	<ellipse class="st5" cx="142.4" cy="76.4" rx="134.9" ry="26.2"/>
	<ellipse class="st4" cx="148.3" cy="77.8" rx="132.7" ry="27.5"/>
</g>
<g id="side_lines">
	<path class="st6" d="M54,101.3c-0.8,1.4-1.1,2.4-1.1,4.1c0,2.5,1.1,3.6,1.1,3.6"/>
	<path class="st6" d="M233.4,108.8c0.8-1.3,1.1-2.2,1.1-3.8c0-2.3-1.1-3.4-1.1-3.4"/>
	<path class="st6" d="M195.5,72.9c10.7,2.5,17.6,7,22.8,11.1c7.9,6.3,10.3,8.8,15.1,17.5"/>
	<path class="st6" d="M91.9,72.9c-10.7,2.5-17.6,7-22.8,11.1c-7.9,6.3-10.3,8.8-15.1,17.5"/>
</g>
<g id="lights">
	<ellipse class="st7" cx="198" cy="94.8" rx="9" ry="4.5"/>
	<ellipse class="st7" cx="90" cy="94.8" rx="9" ry="4.5"/>
	<ellipse class="st7" cx="45" cy="85.8" rx="9" ry="4.5"/>
	<ellipse class="st7" cx="144" cy="94.8" rx="9" ry="4.5"/>
	<ellipse class="st7" cx="243" cy="85.8" rx="9" ry="4.5"/>
</g>
<g id="main_window">
	<g>
		<g id="XMLID_1_">
			<g>
				<path class="st8" d="M72,72.3c0-39.8,32.2-72,72-72s72,32.2,72,72h-54c-9.8,1.2-17.2,1.2-27,0H72z"/>
			</g>
			<g>
			</g>
		</g>
		<ellipse class="st8" cx="144" cy="72.3" rx="72" ry="9"/>
	</g>
</g>
<g id="Layer_9">
	<g>
		<g id="XMLID_2_">
			<g>
				<path class="st9" d="M80.8,38.3c4.6-8.5,10.7-16.1,17.9-22c13.1-10.9,29.6-16,45.3-16c34.8,0,54,32.2,54,72h-47.3
					c-8.6,1.2-15,1.2-23.6,0H72C72,60.3,75.3,48.6,80.8,38.3z"/>
			</g>
			<g>
			</g>
		</g>
		<ellipse class="st9" cx="135" cy="72.3" rx="63" ry="9"/>
	</g>
	<g>
		<g id="XMLID_4_">
			<g>
				<radialGradient id="SVGID_2_" cx="134.6656" cy="38.6106" r="45.0048" gradientUnits="userSpaceOnUse">
					<stop  offset="5.618000e-03" style="stop-color:#E2F3FE"/>
					<stop  offset="0.4494" style="stop-color:#BCE4FA"/>
					<stop  offset="1" style="stop-color:#A7D5F4"/>
				</radialGradient>
				<path class="st10" d="M102.4,21c11.6-9.4,26.3-13.8,40.3-13.8c30.9,0,48,27.7,48,61.9h-42c-7.6,1.1-13.4,1.1-21,0h-49
					c0-10.3,2.9-20.3,7.8-29.2C90.6,32.7,96,26.2,102.4,21z"/>
			</g>
			<g>
			</g>
		</g>
		
			<radialGradient id="SVGID_3_" cx="137.8913" cy="64.3606" r="45" gradientTransform="matrix(0.8889 0 0 0.8601 12.0966 13.8207)" gradientUnits="userSpaceOnUse">
			<stop  offset="5.618000e-03" style="stop-color:#E2F3FE"/>
			<stop  offset="0.4494" style="stop-color:#BCE4FA"/>
			<stop  offset="1" style="stop-color:#A7D5F4"/>
		</radialGradient>
		<ellipse class="st11" cx="134.7" cy="69.2" rx="56" ry="7.7"/>
	</g>
	<g>
		<g id="XMLID_3_">
			<g>
				<path class="st9" d="M111.1,17.5c11.1-9.9,25.1-14.5,38.5-14.5c29.6,0,45.9,29.2,45.9,65.3h-40.1c-7.3,1.1-12.8,1.1-20.1,0H88.5
					c0-10.8,2.8-21.4,7.5-30.8C99.8,29.7,105.1,22.9,111.1,17.5z"/>
			</g>
			<g>
			</g>
		</g>
		<ellipse class="st9" cx="142" cy="68.3" rx="53.5" ry="8.2"/>
	</g>
	<linearGradient id="SVGID_4_" gradientUnits="userSpaceOnUse" x1="110.6667" y1="27.6658" x2="159.3333" y2="27.6658">
		<stop  offset="5.618000e-03" style="stop-color:#DAEDEB"/>
		<stop  offset="0.4494" style="stop-color:#C6E4E0"/>
		<stop  offset="1" style="stop-color:#A1D5CE"/>
	</linearGradient>
	<ellipse class="st12" cx="135" cy="27.7" rx="24.3" ry="17.2"/>
</g>
</svg>
